<?xml version="1.0" standalone="no"?>
<!DOCTYPE svg PUBLIC "-//W3C//DTD SVG 20010904//EN"
 "http://www.w3.org/TR/2001/REC-SVG-20010904/DTD/svg10.dtd">
<svg version="1.0" xmlns="http://www.w3.org/2000/svg"
 width="1254.000000pt" height="1254.000000pt" viewBox="0 0 1254.000000 1254.000000"
 preserveAspectRatio="xMidYMid meet">

<g transform="translate(0.000000,1254.000000) scale(0.100000,-0.100000)"
fill="#000000" stroke="none">
<path d="M10765 10164 c-66 -24 -223 -80 -350 -124 -403 -138 -888 -310 -899
-319 -6 -4 -76 -59 -156 -122 -164 -130 -403 -317 -595 -465 -114 -89 -406
-320 -549 -435 -27 -21 -42 -39 -35 -39 8 0 64 4 124 9 61 5 151 12 200 15
448 29 555 36 657 42 l116 6 115 102 c113 101 337 303 517 467 52 48 228 207
390 354 612 554 613 555 594 555 -5 -1 -63 -21 -129 -46z"/>
<path d="M4068 9296 c-67 -24 -171 -92 -249 -162 -70 -63 -156 -152 -354 -364
-68 -73 -935 -992 -1145 -1213 l-105 -110 45 7 c234 37 646 72 1470 122 94 6
112 10 168 40 131 71 206 139 585 532 l138 142 897 -1 c493 -1 984 -4 1091 -8
l193 -6 -338 -330 c-379 -368 -664 -648 -1111 -1090 -166 -164 -307 -301 -313
-305 -14 -9 -1938 -1930 -1933 -1930 5 0 372 308 673 565 859 733 1101 941
1500 1289 1010 884 1160 1015 1505 1320 504 446 848 732 1330 1106 88 69 216
169 285 223 69 55 148 116 177 136 29 20 52 38 53 41 0 3 -1018 6 -2262 7
-1895 2 -2269 1 -2300 -11z"/>
<path d="M9075 8529 c-450 -7 -597 -15 -930 -49 -104 -11 -206 -20 -226 -20
-44 0 -120 -55 -372 -267 -305 -257 -724 -636 -1317 -1193 -85 -80 -209 -195
-275 -255 -164 -151 -489 -453 -795 -739 -140 -131 -354 -331 -475 -445 -121
-113 -267 -251 -325 -306 -58 -56 -186 -177 -285 -270 -99 -94 -290 -276 -425
-405 -135 -129 -367 -350 -515 -490 -149 -140 -317 -300 -375 -355 -58 -56
-188 -179 -290 -275 -102 -95 -200 -188 -218 -205 l-34 -32 828 5 827 5 286
246 c157 135 417 358 576 496 333 286 391 336 450 385 148 122 1132 978 1460
1270 121 107 243 215 270 239 28 24 192 168 365 320 585 513 1020 878 1700
1423 609 488 799 642 1120 907 l25 21 -305 -2 c-168 -1 -503 -5 -745 -9z"/>
<path d="M10432 5690 c-29 -18 -332 -182 -712 -385 -143 -76 -430 -228 -870
-460 -345 -181 -548 -290 -705 -377 l-160 -88 -105 0 c-58 1 -615 -1 -1238 -4
l-1133 -4 -47 -38 c-139 -113 -550 -466 -662 -569 -36 -33 -183 -165 -328
-294 -144 -129 -262 -236 -262 -239 0 -3 240 -2 533 1 292 4 1257 7 2143 7
l1612 0 180 223 c99 122 319 396 488 608 170 212 533 666 808 1008 274 342
496 624 494 626 -2 2 -18 -4 -36 -15z"/>
<path d="M3783 3020 l-712 -5 -258 -236 c-521 -477 -955 -881 -950 -885 2 -2
75 25 161 61 87 36 208 83 269 106 166 61 775 305 1034 415 573 242 1173 520
1173 543 0 6 -1 10 -2 9 -2 -2 -323 -5 -715 -8z"/>
</g>
</svg>
