<?xml version="1.0" standalone="no"?>
<!DOCTYPE svg PUBLIC "-//W3C//DTD SVG 20010904//EN"
 "http://www.w3.org/TR/2001/REC-SVG-20010904/DTD/svg10.dtd">
<svg version="1.0" xmlns="http://www.w3.org/2000/svg"
 width="1536.000000pt" height="1024.000000pt" viewBox="0 0 1536.000000 1024.000000"
 preserveAspectRatio="xMidYMid meet">

<g transform="translate(0.000000,1024.000000) scale(0.100000,-0.100000)"
fill="#000000" stroke="none">
<path d="M10974 7316 c16 -14 31 -26 34 -26 10 0 -22 32 -42 42 -14 6 -11 1 8
-16z"/>
<path d="M10856 7258 c10 -14 21 -24 23 -22 3 3 -6 15 -18 27 l-24 22 19 -27z"/>
<path d="M11025 7241 c6 -18 4 -22 -6 -15 -12 6 -12 5 0 -9 8 -10 9 -17 3 -17
-6 0 -16 8 -21 18 -8 13 -10 14 -11 2 0 -12 -2 -12 -9 -2 -7 11 -9 11 -14 -1
-4 -11 0 -15 14 -12 16 3 19 -2 19 -41 0 -30 -5 -46 -14 -50 -9 -3 -12 -12 -9
-21 5 -11 3 -14 -6 -9 -9 6 -12 1 -9 -15 2 -20 -2 -25 -24 -27 -21 -3 -27 0
-22 11 3 8 1 18 -5 22 -7 3 -8 0 -5 -9 8 -20 -10 -21 -25 -2 -9 11 -9 25 0 59
6 25 9 53 6 63 -3 13 -5 10 -6 -9 0 -15 -10 -52 -20 -82 -11 -31 -15 -53 -10
-50 5 4 9 -1 9 -9 0 -8 8 -22 17 -32 13 -12 14 -19 5 -22 -7 -2 -9 -10 -4 -20
10 -19 8 -79 -1 -89 -4 -3 -11 5 -16 18 -5 13 -10 20 -10 15 -1 -5 -7 -3 -15
3 -12 10 -14 8 -12 -14 2 -14 -1 -28 -7 -32 -6 -3 -7 -1 -3 5 4 7 1 12 -8 12
-8 0 -17 -8 -20 -17 -2 -10 -4 -4 -3 12 1 17 6 33 12 37 6 5 5 8 -3 8 -10 0
-10 5 -1 23 7 13 -1 8 -19 -13 -17 -19 -31 -38 -32 -41 0 -7 -113 -118 -160
-159 l-25 -21 26 15 c14 9 29 13 33 9 4 -5 6 -3 4 3 -4 15 69 87 77 75 3 -6
14 -8 25 -6 13 2 20 -2 20 -11 0 -9 -5 -12 -11 -8 -8 4 -8 1 -2 -12 13 -26 11
-46 -6 -52 -10 -3 -11 2 -6 19 4 13 4 21 0 17 -4 -4 -9 -19 -11 -33 -2 -25 -1
-26 19 -11 12 8 21 19 20 25 -3 10 10 15 29 12 3 0 37 29 75 65 37 36 63 63
57 60 -7 -3 -11 4 -11 19 0 19 3 23 12 15 8 -7 12 -5 12 5 0 8 -4 12 -8 9 -4
-2 -10 0 -14 6 -3 5 1 10 10 10 9 0 14 4 11 8 -3 5 1 9 9 9 8 0 15 -7 15 -16
1 -11 8 -8 26 13 14 16 23 35 20 43 -3 8 -2 12 3 9 13 -9 32 43 25 71 -5 18
-9 21 -15 11 -7 -10 -9 -9 -9 5 0 22 19 22 27 0 6 -15 7 -15 14 3 11 29 10
137 -2 154 -8 12 -9 10 -4 -9z m-124 -219 c2 2 1 -1 -3 -6 -10 -13 -24 1 -33
34 -6 25 -6 25 12 -3 11 -15 21 -26 24 -25z m109 38 c0 -5 -2 -10 -4 -10 -3 0
-8 5 -11 10 -3 6 -1 10 4 10 6 0 11 -4 11 -10z m-10 -32 c0 -5 -7 -8 -15 -4
-8 3 -15 0 -15 -6 0 -6 -3 -8 -6 -5 -9 9 16 38 27 31 5 -3 9 -10 9 -16z m-227
-128 c-3 -12 -8 -19 -11 -16 -5 6 5 36 12 36 2 0 2 -9 -1 -20z m87 -65 c-24
-25 -52 -27 -56 -3 -1 11 4 14 20 10 11 -3 18 -1 14 3 -4 5 -3 14 3 22 9 10
15 11 26 2 11 -10 10 -16 -7 -34z m-131 12 c-2 -1 -13 -9 -24 -17 -19 -14 -19
-14 -6 3 7 9 18 17 24 17 6 0 8 -1 6 -3z m56 -75 c-3 -3 -15 -7 -28 -9 -21 -4
-21 -3 -2 11 18 13 44 12 30 -2z"/>
<path d="M10845 6852 c3 -3 -1 -12 -7 -21 -8 -10 -4 -9 10 3 26 23 26 23 7 23
-8 0 -13 -3 -10 -5z"/>
<path d="M10967 7163 c-4 -3 -7 -11 -7 -17 0 -6 5 -5 12 2 6 6 9 14 7 17 -3 3
-9 2 -12 -2z"/>
<path d="M10901 7134 c0 -11 3 -14 6 -6 3 7 2 16 -1 19 -3 4 -6 -2 -5 -13z"/>
<path d="M10827 7017 c-3 -8 1 -14 8 -14 7 0 11 6 8 14 -3 7 -6 13 -8 13 -2 0
-5 -6 -8 -13z"/>
<path d="M3419 6873 c-13 -16 -12 -17 4 -4 9 7 17 15 17 17 0 8 -8 3 -21 -13z"/>
<path d="M10676 6783 c-6 -14 -5 -15 5 -6 7 7 10 15 7 18 -3 3 -9 -2 -12 -12z"/>
<path d="M10687 6764 c-13 -18 -14 -22 -3 -18 8 3 17 13 20 21 10 25 3 23 -17
-3z"/>
<path d="M10679 6718 c-1 -7 -1 -16 0 -20 0 -5 -6 -8 -14 -8 -8 0 -15 -5 -15
-10 0 -20 36 8 37 29 2 22 -6 30 -8 9z"/>
<path d="M10600 6690 c8 -5 20 -10 25 -10 6 0 3 5 -5 10 -8 5 -19 10 -25 10
-5 0 -3 -5 5 -10z"/>
<path d="M10601 6650 c-31 -26 -17 -26 16 0 14 11 22 20 17 20 -5 -1 -20 -10
-33 -20z"/>
<path d="M10260 6530 c-9 -6 -10 -10 -3 -10 6 0 15 5 18 10 8 12 4 12 -15 0z"/>
<path d="M3381 6370 c0 -8 4 -22 9 -30 12 -18 12 -2 0 25 -6 13 -9 15 -9 5z"/>
<path d="M3340 6344 c0 -6 7 -19 16 -30 14 -18 14 -18 3 6 -14 31 -19 36 -19
24z"/>
<path d="M3400 6311 c0 -6 4 -13 10 -16 6 -3 7 1 4 9 -7 18 -14 21 -14 7z"/>
<path d="M3375 6291 c-3 -5 -2 -12 3 -15 5 -3 9 1 9 9 0 17 -3 19 -12 6z"/>
<path d="M3430 6217 c48 -51 143 -111 173 -109 10 0 15 -4 11 -10 -5 -7 -1 -9
9 -5 10 3 17 2 17 -3 0 -12 142 -43 172 -37 19 3 17 5 -8 6 -81 3 -208 59
-289 125 -27 22 -44 33 -36 23 26 -33 -11 -19 -54 20 -37 35 -37 35 5 -10z
m74 -43 c3 -8 2 -12 -4 -9 -6 3 -10 10 -10 16 0 14 7 11 14 -7z m41 -24 c3 -6
-1 -7 -9 -4 -18 7 -21 14 -7 14 6 0 13 -4 16 -10z"/>
<path d="M11044 6216 c-139 -32 -271 -100 -372 -192 -111 -100 -162 -181 -206
-326 -27 -86 -28 -88 -117 -172 -105 -99 -167 -134 -205 -117 -14 6 -27 18
-31 28 -10 25 30 130 103 276 54 106 63 131 54 147 -6 12 -16 18 -23 14 -9 -5
-8 -3 1 7 23 24 12 33 -13 9 -15 -14 -31 -21 -45 -17 -11 3 -18 2 -16 -1 2 -4
-7 -15 -20 -25 -21 -16 -25 -16 -30 -3 -8 21 6 42 17 25 4 -7 12 -10 16 -5 4
5 2 11 -5 13 -7 3 -20 12 -28 21 -15 15 -16 14 -10 -4 4 -15 1 -20 -13 -20
-18 0 -18 2 3 42 11 23 24 40 28 37 4 -2 5 4 1 13 -4 10 -2 15 3 11 5 -3 10 2
11 11 1 9 5 33 8 52 5 35 5 35 -8 -5 -8 -22 -53 -115 -101 -207 -49 -95 -84
-173 -80 -179 4 -7 3 -9 -3 -6 -17 10 -65 -123 -70 -193 -4 -57 -2 -70 19
-100 85 -125 326 -34 485 183 19 26 38 45 43 42 4 -2 10 -24 12 -48 11 -93 73
-174 165 -214 54 -24 245 -24 333 0 139 38 301 141 398 253 80 92 161 290 162
395 0 95 -70 199 -163 239 -66 29 -213 36 -303 16z m166 -64 c112 -81 62 -362
-106 -598 -121 -171 -291 -249 -372 -171 -35 33 -55 96 -55 171 0 151 104 368
240 502 116 114 221 148 293 96z m-1185 -422 c-3 -5 -11 -10 -16 -10 -6 0 -7
5 -4 10 3 6 11 10 16 10 6 0 7 -4 4 -10z"/>
<path d="M12425 6224 c-132 -32 -287 -143 -417 -301 -33 -40 -65 -73 -70 -73
-9 0 119 252 158 309 13 20 24 39 24 43 0 14 -169 9 -204 -6 -33 -14 -86 -78
-105 -128 -5 -13 -39 -86 -77 -163 -37 -77 -75 -160 -85 -185 -9 -25 -49 -114
-89 -199 -43 -94 -70 -165 -68 -180 3 -25 5 -26 88 -29 116 -4 124 -1 139 50
27 90 149 324 217 413 85 113 204 229 280 275 47 28 68 35 112 35 47 0 57 -3
75 -27 28 -38 16 -88 -34 -143 -80 -87 -68 -164 33 -216 112 -57 281 14 356
149 31 55 16 53 -26 -4 -65 -88 -168 -139 -251 -124 -54 10 -103 54 -99 89 3
25 12 32 89 64 50 21 106 72 130 119 40 78 20 181 -41 213 -32 17 -103 27
-135 19z"/>
<path d="M10348 6175 c5 -11 12 -27 15 -35 5 -13 6 -13 6 1 1 8 -6 24 -15 35
-15 19 -15 19 -6 -1z"/>
<path d="M10054 6164 c-18 -14 -18 -15 4 -4 12 6 22 13 22 15 0 8 -5 6 -26
-11z"/>
<path d="M10098 6113 c7 -3 16 -2 19 1 4 3 -2 6 -13 5 -11 0 -14 -3 -6 -6z"/>
<path d="M9959 6108 c-2 -13 -6 -27 -9 -35 -1 -5 -2 -10 -2 -13 0 -3 -9 -7
-21 -7 -21 -2 -21 -1 3 17 14 11 20 20 14 20 -5 0 -26 -17 -45 -37 -18 -21
-25 -30 -14 -21 14 12 25 14 35 8 14 -9 7 -14 -13 -11 -5 1 -6 -3 -2 -8 3 -6
27 5 55 25 28 20 47 40 44 45 -6 11 -14 12 -13 2 4 -24 -4 -25 -16 -3 -8 14
-15 22 -16 18z"/>
<path d="M10346 6042 c4 -16 0 -28 -13 -38 -10 -9 -12 -13 -5 -9 6 3 12 1 12
-5 0 -6 -10 -10 -22 -8 -11 2 -23 -3 -26 -11 -3 -8 0 -11 6 -7 16 10 27 -15
11 -25 -8 -5 -24 -7 -36 -4 -13 3 -23 1 -23 -5 0 -5 11 -10 24 -10 13 0 26 -5
28 -11 2 -7 17 16 32 51 23 51 26 66 17 84 -11 21 -11 20 -5 -2z"/>
<path d="M9735 6019 c-4 -6 -5 -12 -2 -15 2 -3 7 2 10 11 7 17 1 20 -8 4z"/>
<path d="M9822 5987 c-18 -18 -29 -37 -25 -42 5 -4 3 -5 -3 -2 -6 3 -34 -21
-64 -54 -29 -33 -63 -65 -76 -71 -13 -6 -20 -16 -17 -24 3 -8 -1 -14 -8 -14
-7 0 -9 -3 -6 -7 4 -3 0 -14 -9 -24 -10 -11 -12 -19 -5 -24 6 -3 12 -4 12 -1
1 3 2 9 3 14 1 4 10 21 19 37 15 24 17 26 14 8 -3 -13 -1 -25 3 -28 12 -7 41
36 33 48 -3 6 -1 7 4 4 6 -4 38 24 71 62 47 52 58 71 49 80 -8 8 -8 14 -2 19
14 10 49 52 44 52 -3 0 -20 -15 -37 -33z"/>
<path d="M9860 5995 c-7 -8 -9 -15 -4 -15 5 0 0 -7 -10 -15 -11 -8 -15 -15
-10 -15 17 0 57 47 46 54 -5 3 -15 -1 -22 -9z"/>
<path d="M9486 5925 c-9 -26 -7 -32 5 -12 6 10 9 21 6 23 -2 3 -7 -2 -11 -11z"/>
<path d="M10267 5896 c-3 -8 1 -20 9 -27 12 -10 13 -9 8 6 -6 14 -4 16 7 10
12 -8 12 -6 0 8 -16 21 -17 21 -24 3z"/>
<path d="M9665 5869 c-4 -6 -5 -12 -2 -15 2 -3 7 2 10 11 7 17 1 20 -8 4z"/>
<path d="M9456 5853 c-6 -14 -5 -15 5 -6 7 7 10 15 7 18 -3 3 -9 -2 -12 -12z"/>
<path d="M9430 5799 c-7 -11 -10 -23 -7 -25 2 -2 9 7 15 21 14 30 7 33 -8 4z"/>
<path d="M4119 5763 c-13 -16 -12 -17 4 -4 9 7 17 15 17 17 0 8 -8 3 -21 -13z"/>
<path d="M8656 5743 c-6 -14 -5 -15 5 -6 7 7 10 15 7 18 -3 3 -9 -2 -12 -12z"/>
<path d="M9396 5724 c-9 -20 -15 -38 -13 -41 2 -2 10 10 17 27 9 23 15 28 21
18 5 -7 9 -8 9 -3 0 6 -4 16 -8 23 -6 8 -14 1 -26 -24z"/>
<path d="M9643 5743 c8 -13 -27 -46 -38 -36 -4 5 -5 0 -2 -9 6 -18 -7 -23 -42
-19 -11 2 -11 0 0 -12 11 -12 17 -12 28 -3 12 9 12 8 0 -11 -11 -19 -15 -20
-22 -8 -4 8 -13 15 -19 15 -6 0 -5 -7 3 -17 13 -16 12 -17 -4 -4 -10 8 -15 21
-12 30 5 14 4 14 -7 0 -19 -23 -49 -32 -41 -12 5 13 2 12 -14 -3 -11 -10 -18
-22 -16 -26 2 -5 -5 -8 -16 -8 -34 0 -53 -11 -41 -25 7 -8 5 -12 -6 -12 -11 0
-14 7 -11 26 5 25 5 25 -10 6 -15 -20 -15 -20 -10 0 2 11 8 29 12 40 5 11 6
18 2 15 -3 -3 -38 -77 -77 -164 -45 -100 -69 -165 -65 -177 6 -17 17 -19 98
-19 51 0 97 4 104 8 7 4 23 37 37 72 42 113 97 223 142 287 28 40 39 65 32 69
-6 4 -8 3 -5 -3z"/>
<path d="M4059 5713 c-12 -16 -12 -17 2 -6 9 7 20 9 24 5 5 -4 5 -1 1 6 -9 16
-11 15 -27 -5z"/>
<path d="M9070 5711 c0 -7 -4 -9 -10 -6 -6 4 -7 -1 -3 -11 6 -15 7 -15 15 1 6
9 7 19 4 22 -3 4 -6 1 -6 -6z"/>
<path d="M8760 5492 c-47 -97 -115 -222 -151 -277 -71 -107 -173 -211 -239
-245 -100 -51 -247 -63 -319 -25 -40 20 -48 19 -26 -5 29 -32 112 -55 195 -54
103 1 169 18 278 71 158 77 312 240 436 462 68 121 73 133 52 125 -9 -3 -13
-11 -9 -17 3 -6 -4 -3 -18 6 -13 9 -28 17 -34 17 -5 0 -3 -5 5 -10 11 -7 11
-10 2 -10 -7 0 -11 -4 -7 -9 3 -5 0 -13 -6 -17 -8 -5 -9 -3 -4 6 6 10 4 12 -8
7 -9 -3 -19 -2 -22 3 -3 5 -15 7 -26 5 -26 -5 -46 3 -53 21 -7 18 -1 18 18 -2
9 -8 16 -11 16 -5 0 5 -7 14 -16 19 -15 8 -14 14 5 57 12 26 20 49 18 51 -1 1
-41 -77 -87 -174z"/>
<path d="M9045 5659 c-4 -6 -5 -12 -2 -15 2 -3 7 2 10 11 7 17 1 20 -8 4z"/>
<path d="M3949 5633 c-13 -16 -12 -17 4 -4 9 7 17 15 17 17 0 8 -8 3 -21 -13z"/>
<path d="M9025 5619 c-4 -6 -5 -12 -2 -15 2 -3 7 2 10 11 7 17 1 20 -8 4z"/>
<path d="M3909 5603 c-13 -16 -12 -17 4 -4 16 13 21 21 13 21 -2 0 -10 -8 -17
-17z"/>
<path d="M4190 5605 c-7 -8 -16 -13 -19 -10 -4 2 -8 -3 -8 -11 0 -11 7 -9 26
8 14 13 28 24 30 26 2 1 0 2 -6 2 -6 0 -16 -7 -23 -15z"/>
<path d="M8341 5584 c-11 -15 -18 -31 -14 -38 3 -6 3 -8 -2 -4 -4 4 -41 -24
-82 -62 -41 -39 -79 -70 -85 -70 -5 0 -6 -5 -3 -10 4 -6 3 -10 -2 -9 -21 4
-34 -2 -27 -13 4 -6 3 -8 -3 -5 -5 3 -32 -1 -59 -9 -119 -37 -205 22 -191 129
4 32 3 38 -5 24 -10 -20 -7 -78 7 -112 4 -11 5 -17 0 -13 -4 4 -14 0 -22 -10
-11 -15 -12 -13 -3 11 8 22 7 29 -6 34 -8 3 -18 3 -21 -1 -4 -3 1 -6 11 -6 9
0 14 -5 11 -10 -4 -6 -16 -8 -28 -5 -12 2 -16 2 -9 -1 6 -3 12 -12 12 -20 0
-8 7 -17 15 -20 8 -4 13 -10 10 -15 -11 -16 45 -41 116 -52 66 -10 72 -9 85 8
8 10 14 13 14 7 0 -7 9 -12 21 -12 11 0 18 3 16 8 -3 4 14 8 37 8 49 1 221 78
211 94 -3 5 0 7 7 5 7 -3 29 9 48 26 19 16 30 28 25 26 -6 -3 -19 1 -30 9 -11
8 -14 14 -6 14 8 0 11 8 8 20 -6 23 -2 25 17 8 11 -11 11 -15 -3 -25 -14 -10
-13 -12 7 -10 12 1 22 7 22 14 0 7 7 13 16 13 14 0 15 -3 3 -17 -7 -10 -1 -7
13 6 15 13 26 31 25 42 -1 22 -12 15 -12 -9 0 -20 -46 -22 -69 -3 -8 7 -21 9
-27 5 -21 -13 -60 -13 -52 -1 4 7 8 20 9 30 2 29 3 30 19 17 18 -15 20 -35 3
-24 -6 4 -8 3 -4 -4 3 -5 1 -13 -4 -15 -6 -3 -5 -4 1 -3 7 1 19 13 28 26 9 13
11 21 5 17 -13 -8 -38 16 -27 26 3 4 4 7 0 7 -3 0 -15 -12 -26 -26z m-27 -73
c8 -13 -21 -34 -36 -25 -7 4 -4 -2 7 -13 11 -11 24 -18 29 -15 5 3 6 0 2 -7
-4 -6 -12 -9 -17 -6 -5 4 -18 8 -30 10 -17 4 -19 2 -9 -10 7 -9 8 -15 2 -15
-19 0 -23 33 -6 51 9 10 19 18 23 17 3 0 13 0 21 1 13 1 13 2 0 11 -9 6 -10
10 -3 10 6 0 14 -4 17 -9z m-33 -118 c13 -16 12 -17 -3 -4 -10 7 -18 15 -18
17 0 8 8 3 21 -13z"/>
<path d="M4139 5588 c-5 -18 -6 -38 -1 -34 7 8 12 36 6 36 -2 0 -4 -1 -5 -2z"/>
<path d="M9010 5581 c0 -7 -5 -9 -12 -5 -7 5 -8 3 -3 -5 5 -9 10 -10 18 -2 6
6 8 14 4 18 -4 3 -7 1 -7 -6z"/>
<path d="M3842 5558 c-24 -15 -30 -24 -23 -31 6 -6 11 -15 11 -21 0 -5 -6 -2
-13 8 -12 16 -18 14 -87 -34 -41 -28 -74 -56 -72 -61 1 -6 -2 -8 -8 -4 -13 8
-52 -19 -42 -30 4 -5 2 -5 -5 -1 -6 3 -62 -25 -123 -64 -117 -74 -386 -218
-530 -284 -269 -124 -407 -203 -465 -267 -68 -76 -28 -99 88 -51 314 131 715
213 1117 228 140 6 367 -4 472 -21 13 -2 50 -6 83 -10 155 -17 413 -70 645
-132 74 -20 137 -38 140 -40 2 -2 -14 -21 -35 -43 l-40 -38 -100 33 c-143 49
-431 121 -565 142 -84 13 -170 18 -320 18 -243 -1 -351 -19 -486 -84 -105 -50
-165 -105 -207 -190 -30 -61 -32 -73 -32 -166 1 -91 3 -106 30 -160 47 -93
121 -166 218 -213 115 -57 182 -73 332 -79 280 -11 575 77 869 259 101 63 212
150 345 272 65 59 109 92 115 87 6 -5 54 -27 106 -49 147 -62 341 -149 630
-282 573 -264 842 -378 1180 -500 826 -299 1622 -445 2325 -426 890 24 1557
296 1779 726 55 106 76 187 76 300 0 158 -48 276 -162 395 -167 176 -413 272
-798 311 -280 28 -627 -5 -973 -91 -134 -34 -347 -104 -347 -115 0 -4 -10 -6
-22 -2 -14 3 -19 1 -14 -6 4 -7 2 -10 -7 -7 -34 14 -411 -160 -804 -371 -120
-64 -258 -136 -308 -160 -49 -23 -85 -43 -79 -43 6 -1 192 90 415 202 600 302
953 434 1364 511 501 94 975 61 1303 -90 158 -72 274 -181 344 -321 37 -74 41
-91 46 -177 7 -141 -32 -279 -109 -388 -293 -411 -944 -638 -1829 -638 -893 1
-1876 239 -2955 717 -93 42 -316 142 -495 223 -179 81 -399 177 -490 215 -91
37 -169 72 -175 77 -6 5 6 24 31 49 l41 41 184 -67 c252 -90 570 -212 979
-375 901 -360 1144 -449 1521 -554 792 -222 1401 -261 2036 -130 237 48 490
144 631 238 93 61 189 166 229 247 28 55 33 78 34 140 1 41 -4 94 -11 119 -14
52 -39 104 -46 97 -3 -3 2 -19 10 -36 67 -128 -61 -299 -323 -430 -225 -114
-516 -178 -911 -202 -425 -26 -943 38 -1555 192 -127 32 -519 147 -595 174
-25 9 -65 23 -90 30 -91 26 -652 225 -760 270 -19 8 -168 64 -330 125 -162 61
-323 123 -358 136 -34 14 -67 22 -72 19 -6 -3 -10 -2 -10 3 0 5 -8 12 -17 15
-10 3 -97 32 -193 66 -96 34 -181 59 -188 56 -7 -3 -10 0 -7 5 3 6 -1 10 -10
10 -13 0 -11 7 10 35 15 19 24 39 19 46 -4 7 -3 9 3 6 14 -9 76 80 67 95 -4 7
-3 8 4 4 12 -7 93 107 91 128 0 6 -3 6 -6 -2 -2 -6 -9 -10 -14 -6 -5 3 -9 2
-8 -3 3 -18 -1 -36 -7 -30 -4 3 -16 0 -27 -8 -15 -11 -24 -12 -34 -3 -7 6 -13
7 -13 2 0 -5 -5 -2 -10 6 -8 13 -10 12 -10 -3 0 -15 -7 -18 -42 -17 -24 1 -46
1 -50 0 -10 -3 -26 -7 -35 -9 -5 -1 1 -8 11 -16 11 -8 15 -15 9 -15 -6 0 -16
6 -22 14 -9 10 -8 16 4 26 8 7 15 9 15 5 0 -4 7 -2 15 5 8 7 12 16 9 21 -3 5
0 9 6 9 7 0 9 7 6 16 -4 9 -1 24 6 32 10 13 10 14 0 8 -21 -13 -83 -117 -76
-128 4 -6 3 -8 -3 -5 -14 9 -37 -19 -28 -33 4 -6 2 -9 -3 -8 -5 2 -28 -21 -51
-49 -23 -29 -45 -53 -50 -53 -4 0 -64 16 -134 35 -69 19 -168 44 -219 55 -51
12 -102 24 -113 26 -16 4 -17 3 -5 -5 8 -6 26 -11 40 -11 22 -1 23 -2 7 -11
-9 -6 -15 -14 -13 -18 3 -4 -5 -8 -16 -8 -20 -2 -20 -1 -2 12 21 16 12 20 -14
6 -27 -14 -80 -24 -62 -11 8 5 11 10 5 11 -17 1 -39 7 -59 15 -15 6 -17 4 -11
-7 5 -8 -1 -6 -13 5 -13 11 -30 16 -42 13 -11 -3 -18 -2 -15 3 9 14 -19 28
-69 34 -48 5 -76 16 -41 16 34 0 220 -32 237 -41 10 -5 19 -5 22 0 11 17 -343
71 -599 91 -151 12 -396 7 -549 -11 -44 -5 -81 -7 -84 -5 -2 3 28 21 66 40 77
39 210 118 342 204 79 51 126 86 90 67 -9 -5 -12 -4 -7 1 5 5 15 9 23 9 7 0
14 5 15 10 0 6 8 18 16 28 9 9 11 17 5 17 -6 0 -14 -4 -17 -10 -3 -5 -11 -10
-17 -10 -21 0 14 29 43 35 34 8 39 7 39 -2 -1 -5 -11 -7 -23 -6 -12 1 -16 0
-9 -3 8 -4 5 -11 -10 -25 -46 -38 -6 -17 71 37 44 31 78 61 75 65 -3 5 -21 -7
-41 -26 -35 -34 -68 -50 -44 -22 9 11 6 14 -13 13 -25 -2 -99 -36 -104 -48 -2
-5 -10 -8 -18 -8 -10 0 -12 5 -8 13 5 7 2 7 -10 -2 -9 -8 -16 -10 -15 -5 2 5
-5 23 -14 41 -11 20 -13 34 -7 38 6 4 9 1 8 -6 -2 -6 4 -14 12 -16 12 -4 12
-3 2 5 -18 12 -17 21 5 38 28 21 12 16 -25 -8z m1656 -504 c-21 -19 -43 -34
-50 -33 -10 0 -10 2 0 6 6 2 9 10 6 15 -4 7 -2 8 5 4 6 -4 22 6 37 24 15 17
29 28 33 25 3 -4 -11 -22 -31 -41z m-22 19 c-10 -11 -37 -12 -30 -2 3 5 12 9
21 9 9 0 13 -3 9 -7z m-709 -99 c-3 -3 -12 -4 -19 -1 -8 3 -5 6 6 6 11 1 17
-2 13 -5z m297 -63 c3 -4 -6 -6 -19 -3 -14 2 -25 6 -25 8 0 8 39 4 44 -5z
m-794 -86 c189 -29 643 -145 669 -171 11 -11 -218 -199 -351 -287 -183 -120
-399 -211 -577 -243 -105 -19 -302 -18 -376 1 -203 53 -325 190 -312 352 14
181 184 314 462 359 100 17 338 11 485 -11z m1415 -116 c5 -5 18 -9 30 -9 11
0 29 -7 39 -15 11 -8 15 -15 9 -15 -7 0 -15 5 -18 10 -3 6 -17 10 -30 10 -13
0 -27 5 -30 10 -3 6 -17 10 -31 10 -13 0 -24 5 -24 11 0 11 38 3 55 -12z"/>
<path d="M8519 5553 c-13 -16 -12 -17 4 -4 9 7 17 15 17 17 0 8 -8 3 -21 -13z"/>
<path d="M7619 5523 l-24 -28 28 24 c15 14 27 26 27 28 0 8 -8 1 -31 -24z"/>
<path d="M5429 5523 c-13 -16 -12 -17 4 -4 9 7 17 15 17 17 0 8 -8 3 -21 -13z"/>
<path d="M5160 5505 c0 -8 -4 -15 -9 -15 -5 0 -7 -17 -4 -37 4 -36 4 -37 -11
-18 -8 11 -16 17 -16 13 0 -4 11 -18 23 -32 17 -18 27 -22 34 -15 8 8 13 7 17
0 4 -6 0 -11 -9 -11 -10 0 -13 -5 -9 -12 5 -8 1 -7 -10 2 -24 19 -46 22 -39 4
3 -8 9 -12 13 -9 4 3 13 -2 20 -10 9 -10 9 -15 1 -15 -6 0 -11 5 -11 11 0 8
-6 7 -17 -2 -12 -10 -14 -10 -9 -1 4 7 1 15 -8 18 -9 3 -13 11 -9 18 3 6 -2 3
-13 -6 -15 -13 -23 -15 -32 -6 -9 9 -13 7 -18 -5 -3 -9 -10 -14 -16 -11 -5 3
-19 -2 -30 -13 -19 -16 -21 -16 -15 -1 3 9 -1 22 -9 29 -9 7 -13 21 -11 31 3
10 1 21 -4 24 -17 10 -9 -51 11 -83 28 -46 52 -56 134 -51 56 2 87 11 146 39
41 20 86 46 100 58 l25 22 -27 -16 c-16 -10 -28 -12 -32 -6 -5 7 -15 7 -32 1
-45 -18 -50 -10 -6 10 58 26 53 33 -7 8 -32 -14 -55 -18 -67 -13 -11 5 -25 7
-31 6 -9 -1 -12 14 -9 54 2 30 2 55 0 55 -2 0 -4 -7 -4 -15z m65 -124 c6 -11
44 -9 65 4 13 7 13 6 2 -7 -8 -10 -25 -14 -47 -12 -28 2 -35 -1 -33 -14 2 -9
-4 -17 -12 -18 -8 0 -9 1 -3 3 9 3 10 10 3 22 -13 25 10 45 25 22z m-184 -38
c-11 -5 -11 -7 0 -14 9 -6 4 -8 -15 -5 -16 3 -31 8 -35 12 -3 4 2 4 11 1 10
-3 20 -2 23 3 4 6 12 10 18 9 8 0 7 -3 -2 -6z"/>
<path d="M5459 5493 c-13 -16 -12 -17 4 -4 9 7 17 15 17 17 0 8 -8 3 -21 -13z"/>
<path d="M4952 5475 c0 -16 2 -22 5 -12 2 9 2 23 0 30 -3 6 -5 -1 -5 -18z"/>
<path d="M5344 5454 c-18 -14 -18 -15 4 -4 12 6 22 13 22 15 0 8 -5 6 -26 -11z"/>
<path d="M7599 5409 c-16 -34 -29 -63 -27 -65 2 -2 18 26 36 61 17 36 30 65
27 65 -3 0 -19 -27 -36 -61z"/>
<path d="M7570 5435 c-15 -18 -35 -20 -24 -3 5 7 3 8 -5 4 -7 -5 -10 -11 -7
-14 3 -3 -2 -14 -11 -26 -17 -19 -16 -19 13 2 30 21 61 52 51 52 -2 0 -10 -7
-17 -15z"/>
<path d="M6536 5391 c-32 -69 -24 -76 86 -79 77 -2 99 0 112 13 20 20 21 36 1
29 -8 -3 -13 -11 -12 -17 1 -9 -27 -12 -93 -12 -93 0 -95 0 -98 25 -4 22 -2
23 15 10 16 -14 17 -13 5 2 -10 13 -11 22 -2 38 6 12 10 24 7 26 -2 2 -12 -13
-21 -35z"/>
<path d="M7418 5393 c7 -3 16 -2 19 1 4 3 -2 6 -13 5 -11 0 -14 -3 -6 -6z"/>
<path d="M7781 5367 c-13 -21 -12 -21 5 -5 10 10 16 20 13 22 -3 3 -11 -5 -18
-17z"/>
<path d="M5942 5345 c0 -16 2 -22 5 -12 2 9 2 23 0 30 -3 6 -5 -1 -5 -18z"/>
<path d="M7180 5340 c6 -11 13 -20 16 -20 2 0 0 9 -6 20 -6 11 -13 20 -16 20
-2 0 0 -9 6 -20z"/>
<path d="M7430 5340 c-19 -11 -31 -19 -27 -20 11 0 67 29 67 35 0 7 -1 7 -40
-15z"/>
<path d="M6142 5334 c-7 -8 -8 -14 -3 -14 10 0 25 19 20 25 -2 1 -10 -3 -17
-11z"/>
<path d="M6017 5313 c18 -2 50 -2 70 0 21 2 7 4 -32 4 -38 0 -55 -2 -38 -4z"/>
<path d="M7340 5310 c-20 -6 -21 -8 -5 -8 11 0 29 3 40 8 25 11 -1 11 -35 0z"/>
<path d="M7230 5306 c0 -2 11 -6 25 -8 13 -3 22 -1 19 3 -5 9 -44 13 -44 5z"/>
<path d="M7536 5274 c-55 -115 -68 -148 -50 -133 16 13 17 12 11 -5 -6 -16 -5
-17 8 -6 13 11 14 10 9 -4 -3 -9 -10 -16 -15 -16 -5 0 -9 -5 -9 -11 0 -6 7 -9
15 -5 8 3 15 1 15 -4 0 -6 -4 -11 -10 -11 -5 -1 -14 -2 -19 -3 -5 0 -13 -5
-18 -10 -5 -5 -3 -6 5 -2 6 4 12 3 12 -3 0 -17 -17 -21 -29 -7 -12 15 -5 46
11 46 5 0 6 5 2 11 -5 9 -234 -440 -234 -459 0 -12 154 10 188 27 62 32 57 23
212 361 87 188 111 246 95 226 -8 -11 -15 -24 -15 -30 0 -5 -7 -1 -16 10 -15
19 -15 18 -5 -2 5 -11 7 -30 4 -42 -4 -17 -10 -21 -29 -16 -15 4 -34 0 -51
-11 -25 -17 -26 -17 -20 4 5 22 4 23 -49 23 -19 1 -31 6 -31 15 0 9 4 10 11 3
18 -18 30 -11 13 8 -20 22 -8 43 21 37 13 -2 20 0 17 6 -4 5 -10 7 -15 4 -5
-3 -10 4 -12 16 -2 19 -6 16 -22 -17z m-105 -267 c-10 -9 -11 -8 -5 6 3 10 9
15 12 12 3 -3 0 -11 -7 -18z"/>
<path d="M5401 5234 c-12 -19 -16 -32 -11 -29 11 7 43 65 36 65 -2 0 -13 -16
-25 -36z"/>
<path d="M7680 5205 c0 -8 2 -15 4 -15 2 0 6 7 10 15 3 8 1 15 -4 15 -6 0 -10
-7 -10 -15z"/>
<path d="M5485 5110 c-3 -5 -2 -10 4 -10 5 0 13 5 16 10 3 6 2 10 -4 10 -5 0
-13 -4 -16 -10z"/>
<path d="M4640 4990 c0 -5 5 -10 10 -10 6 0 10 5 10 10 0 6 -4 10 -10 10 -5 0
-10 -4 -10 -10z"/>
<path d="M7630 4231 c-41 -16 -108 -37 -147 -47 -40 -10 -73 -21 -73 -25 0 -4
37 4 83 17 91 27 227 75 227 80 0 7 -15 3 -90 -25z"/>
</g>
</svg>
